<?xml version="1.0" encoding="utf-8"?>
<!-- Generator: Adobe Illustrator 19.0.1, SVG Export Plug-In . SVG Version: 6.00 Build 0)  -->
<svg version="1.1" id="Layer_1" xmlns="http://www.w3.org/2000/svg" xmlns:xlink="http://www.w3.org/1999/xlink" x="0px" y="0px"
	 width="443.3px" height="360.6px" viewBox="0 0 443.3 360.6" enable-background="new 0 0 443.3 360.6" xml:space="preserve">
<rect x="53.3" y="27.8" fill="none" width="320.4" height="103.5"/>
<text transform="matrix(1 0 0 1 53.3098 112.1132)"><tspan x="0" y="0" fill="#FFFFFF" font-family="'MasterOfBreak'" font-size="98px">F</tspan><tspan x="51" y="0" fill="#FFFFFF" font-family="'MasterOfBreak'" font-size="98px">r</tspan><tspan x="92.4" y="0" fill="#FFFFFF" font-family="'MasterOfBreak'" font-size="98px">ien</tspan><tspan x="203.1" y="0" fill="#FFFFFF" font-family="'MasterOfBreak'" font-size="98px">d</tspan><tspan x="253.8" y="0" fill="#FFFFFF" font-family="'MasterOfBreak'" font-size="98px">s </tspan></text>
<rect x="0" y="126.8" fill="none" width="110.6" height="95.1"/>
<text transform="matrix(1 0 0 1 -4.065876e-05 211.0572)" fill="#FFFFFF" font-family="'MasterOfBreak'" font-size="98px">of </text>
<rect x="132.8" y="134.8" fill="none" width="314.4" height="127.5"/>
<text transform="matrix(1 0 0 1 132.7605 219.0583)"><tspan x="0" y="0" fill="#FFFFFF" font-family="'MasterOfBreak'" font-size="98px">Queen</tspan><tspan x="238.6" y="0" fill="#FFFFFF" font-family="'MasterOfBreak'" font-size="98px" letter-spacing="-20">’s </tspan><tspan x="278.6" y="0" fill="#FFFFFF" font-family="'MasterOfBreak'" font-size="98px"> </tspan></text>
<rect x="96.3" y="264.4" fill="none" width="285.2" height="123.2"/>
<text transform="matrix(1 0 0 1 96.2818 348.7336)" fill="#FFFFFF" font-family="'MasterOfBreak'" font-size="98px"> Wood</text>
</svg>
